<svg xmlns="http://www.w3.org/2000/svg" width="29.269" height="33.284" viewBox="0 0 29.269 33.284">
  <g id="Group_1" data-name="Group 1" transform="translate(69.387 556.211) rotate(-150)">
    <path id="Union_1" data-name="Union 1" d="M5.289,12.463V5.186a3.765,3.765,0,0,1,.086-.8H2a2,2,0,0,1-2-2V2A2,2,0,0,1,2,0H15.632a2,2,0,0,1,2,2v.386a2,2,0,0,1-2,2H12.7a3.765,3.765,0,0,1,.086.8v7.277a3.747,3.747,0,0,1-7.494,0Z" transform="translate(308.441 437.789)" />
    <path id="Subtraction_1" data-name="Subtraction 1" d="M15.073,10.807H3a3,3,0,0,1-3-3V3A3,3,0,0,1,3,0h.322L4.849,6.386,6.377,0h8.7a3,3,0,0,1,3,3V7.807A3,3,0,0,1,15.073,10.807Z" transform="translate(308 426)" />
  </g>
</svg>
