<svg xmlns="http://www.w3.org/2000/svg" width="17.086" height="32.143" viewBox="0 0 17.086 32.143">
  <g id="Group_3" data-name="Group 3" transform="translate(-428 337.697) rotate(-90)">
    <path id="Subtraction_3" data-name="Subtraction 3" d="M5.185,8.889H2a2,2,0,0,1-2-2V2A2,2,0,0,1,2,0H5.185a2,2,0,0,1,2,2V6.89A2,2,0,0,1,5.185,8.889ZM4.316,2.42A1.528,1.528,0,0,0,2.789,3.946V5.165a1.526,1.526,0,0,0,3.052,0V3.946A1.527,1.527,0,0,0,4.316,2.42Z" transform="translate(330.511 432.483)" fill="currentColor"/>
    <path id="Subtraction_1" data-name="Subtraction 1" d="M3,0H19.975a3,3,0,0,1,3,3V14.086a3,3,0,0,1-3,3H3a3,3,0,0,1-3-3V3A3,3,0,0,1,3,0Z" transform="translate(305.553 428)" fill="currentColor"/>
  </g>
</svg>
